<svg xmlns="http://www.w3.org/2000/svg" viewBox="0 0 895 895">
  <rect x="30" y="160" width="850" height="550" />
  <g transform="translate(-2,1400) scale(0.1,-0.1)" fill="#fff">
    <path d="M686 12789 c-278 -46 -510 -248 -604 -524 l-27 -80 -3 -2521 -2 -2521 25 -98 c77 -303 333 -525 650 -564 123 -15 7424 -16 7544 -1 186 24 326 93 456 224 118 120 178 232 210 391 14 72 15 322 13 2580 l-3 2500 -28 80 c-86 253 -259 426 -512 513 l-80 27 -3795 1 c-2087 1 -3817 -2 -3844 -7z m7489 -478 c-11 -10 -330 -290 -710 -621 -379 -332 -1200 -1049 -1823 -1594 -844 -738 -1149 -1000 -1197 -1025 -118 -63 -269 -52 -367 27 -37 29 -3308 3221 -3308 3228 0 2 1671 4 3712 4 3648 0 3712 0 3693 -19z m303 -3856 l-3 -1165 -1099 1330 c-604 732 -1107 1341 -1117 1354 l-19 24 1118 976 1117 976 3 -1165 c1 -641 1 -1689 0 -2330z m-6939 2461 c557 -543 1011 -992 1009 -997 -4 -12 -2022 -2457 -2028 -2458 -3 -1 -5 1000 -5 2224 0 1224 3 2224 6 2223 3 -2 461 -448 1018 -992z m5486 -2606 l1127 -1365 -3667 -3 c-2017 -1 -3688 1 -3712 5 -25 5 -46 12 -47 16 -1 9 2155 2625 2165 2626 3 1 195 -184 428 -411 232 -227 448 -432 479 -456 274 -213 692 -213 977 1 33 25 296 252 585 505 289 253 528 457 532 454 3 -4 513 -621 1133 -1372z"/>
  </g>
</svg>
